# xmcd
#
# Track frame offsets:
#	150
#	15222
#	29875
#	47148
#	58993
#	76558
#	90859
#	105947
#	122410
#	134105
#
# Disc length: 1945 seconds
#
# Revision: 1
# Processed by: cddbd v1.5.2PL0 Copyright (c) Steve Scherf et al.
# Submitted via: audiograbber 1.83.01
#
DISCID=7307970a
DTITLE=Travis List - Cloud Eight
DYEAR=2008
DGENRE=Country
TTITLE0=These Days
TTITLE1=Love Like That
TTITLE2=Cloud Eight
TTITLE3=If I Ever get Her Back
TTITLE4=Fiest Fool In Line
TTITLE5=I'm Gonna Let You Down
TTITLE6=Take It From Me
TTITLE7=I Left Him At Home
TTITLE8=Don't Give Your Heart To A Rambler
TTITLE9=I Remember You
EXTD=
EXTT0=
EXTT1=
EXTT2=
EXTT3=
EXTT4=
EXTT5=
EXTT6=
EXTT7=With Sandra Humphries
EXTT8=
EXTT9=
PLAYORDER=
